<?xml version="1.0" standalone="no"?>
<!DOCTYPE svg PUBLIC "-//W3C//DTD SVG 20010904//EN"
 "http://www.w3.org/TR/2001/REC-SVG-20010904/DTD/svg10.dtd">
<svg version="1.0" xmlns="http://www.w3.org/2000/svg"
 width="512.000000pt" height="512.000000pt" viewBox="0 0 512.000000 512.000000"
 preserveAspectRatio="xMidYMid meet">
<metadata>
Created by potrace 1.14, written by Peter Selinger 2001-2017
</metadata>
<g transform="translate(0.000000,512.000000) scale(0.100000,-0.100000)"
fill="#000000" stroke="none">
<path d="M440 5109 c-132 -19 -256 -93 -334 -199 -55 -74 -84 -149 -97 -249
-6 -49 -9 -810 -7 -2156 l3 -2080 22 -65 c55 -162 177 -282 337 -333 l71 -22
2125 0 2125 0 71 22 c163 52 285 174 337 338 l22 70 0 2125 0 2125 -22 71
c-51 160 -171 282 -333 337 l-65 22 -2100 1 c-1155 1 -2125 -2 -2155 -7z
m2569 -1468 c81 -25 148 -70 217 -144 60 -65 114 -164 114 -210 0 -26 -86
-208 -149 -315 -45 -77 -55 -173 -56 -532 0 -322 7 -387 46 -429 27 -29 45
-27 117 16 82 48 212 163 380 334 75 77 152 149 169 160 69 43 115 -21 116
-166 1 -91 -16 -154 -70 -255 -72 -134 -212 -293 -348 -394 -222 -167 -510
-259 -669 -215 -89 25 -172 141 -218 304 l-22 80 -58 -76 c-103 -137 -246
-243 -393 -294 -129 -44 -383 -59 -520 -30 -214 45 -408 218 -476 426 -22 68
-24 89 -23 269 1 347 69 592 237 848 127 195 359 399 557 491 215 100 570 121
759 45 43 -17 45 -17 55 1 21 35 70 87 90 95 34 14 81 11 145 -9z"/>
<path d="M2588 3269 c-93 -26 -221 -87 -309 -147 -297 -202 -447 -454 -466
-787 -17 -293 87 -427 306 -393 96 15 177 55 254 128 84 78 144 169 190 285
34 88 35 94 41 270 6 197 27 395 57 550 10 55 19 103 19 108 0 10 -17 8 -92
-14z"/>
</g>
</svg>
